<?xml version="1.0" standalone="no"?>
<!DOCTYPE svg PUBLIC "-//W3C//DTD SVG 20010904//EN"
 "http://www.w3.org/TR/2001/REC-SVG-20010904/DTD/svg10.dtd">
<svg version="1.0" xmlns="http://www.w3.org/2000/svg"
 width="256.000000pt" height="256.000000pt" viewBox="0 0 256.000000 256.000000"
 preserveAspectRatio="xMidYMid meet">

<g transform="translate(0.000000,256.000000) scale(0.100000,-0.100000)"
fill="#000000" stroke="none">
<path d="M0 1280 l0 -1280 1280 0 1280 0 -1 283 c-1 193 -4 270 -10 243 -30
-128 -124 -241 -255 -305 -38 -19 -94 -49 -124 -67 -114 -68 -231 -84 -690
-94 -200 -4 -351 -12 -375 -19 -68 -19 -527 20 -646 55 -141 42 -244 114 -312
218 -65 99 -69 119 -77 461 -5 171 -14 391 -20 489 -30 430 15 738 143 981 98
185 274 262 657 286 428 27 670 23 895 -16 44 -7 112 -17 150 -20 39 -4 102
-18 140 -32 39 -14 101 -36 138 -49 94 -32 143 -63 203 -126 65 -68 149 -235
168 -333 13 -65 14 -47 15 268 l1 337 -1280 0 -1280 0 0 -1280z"/>
<path d="M1135 2390 c-71 -4 -184 -11 -250 -15 -174 -10 -355 -41 -420 -71
-59 -28 -113 -81 -143 -141 -25 -49 -78 -209 -98 -298 -22 -96 -30 -444 -15
-655 7 -91 14 -286 15 -435 3 -243 6 -275 24 -323 65 -170 214 -229 636 -253
164 -9 198 -8 252 5 50 13 123 16 356 16 231 0 319 4 418 19 120 17 130 21
250 84 263 139 268 157 271 902 2 464 1 472 -24 615 -22 126 -32 156 -72 235
-66 126 -102 160 -205 190 -14 4 -52 19 -84 32 -45 19 -69 23 -101 19 -27 -5
-54 -1 -78 9 -20 8 -53 15 -72 15 -20 0 -46 5 -58 12 -58 32 -370 52 -602 38z
m923 -316 c47 -33 67 -118 37 -157 -26 -36 -79 -67 -112 -67 -35 0 -97 46
-108 80 -9 29 22 123 48 142 28 22 105 23 135 2z m-575 -129 c129 -33 229
-109 298 -225 129 -217 158 -567 64 -767 -39 -83 -123 -173 -200 -215 -56 -30
-189 -58 -274 -58 -74 0 -233 25 -296 46 -65 22 -215 124 -285 194 -43 42 -64
75 -93 142 -33 78 -37 95 -37 176 0 98 32 248 69 319 29 58 102 117 211 171
52 25 118 66 145 91 69 60 117 90 194 117 78 27 127 29 204 9z"/>
<path d="M1557 1716 c-13 -10 -56 -14 -158 -15 -124 -1 -146 -4 -201 -26 -33
-14 -76 -36 -94 -50 -18 -14 -43 -25 -56 -25 -61 -1 -168 -77 -193 -137 -25
-60 -48 -193 -42 -247 12 -116 69 -193 217 -292 75 -50 130 -68 250 -83 154
-18 274 8 349 75 74 67 99 126 112 266 12 130 0 222 -45 356 -23 66 -98 192
-114 192 -4 0 -15 -7 -25 -14z"/>
</g>
</svg>
